REM DIRINDEX 1\2\5,1\2\6,1\2\7,1\2\8,1\3\9,1\3\10,1\3\11,1\4\12,1\4\13,1\4\14,1\4\15,1\4\16
REM DIRNAME cjc034,folder01,folder02,folder03,folder04,folder05,folder06,folder07,folder08,folder09,folder10,folder11,folder12,folder13,folder14,folder15
TITLE ""
FILE "1200_2_sec03_0621_0638.mp3" MP3
  TRACK 01 AUDIO
    TITLE "0:"
    INDEX 01 00:00:00
  TRACK 02 AUDIO
    TITLE "11:cjc034_01271"
    INDEX 01 00:00:17
  TRACK 03 AUDIO
    TITLE "0:"
    INDEX 01 00:04:44
  TRACK 04 AUDIO
    TITLE "11:cjc034_01272"
    INDEX 01 00:05:48
  TRACK 05 AUDIO
    TITLE "0:"
    INDEX 01 00:09:30
  TRACK 06 AUDIO
    TITLE "10:cjc034_01273"
    INDEX 01 00:10:33
  TRACK 07 AUDIO
    TITLE "0:"
    INDEX 01 00:11:21
  TRACK 08 AUDIO
    TITLE "9:cjc034_01274"
    INDEX 01 00:11:27
  TRACK 09 AUDIO
    TITLE "0:"
    INDEX 01 00:12:44
  TRACK 10 AUDIO
    TITLE "10:cjc034_01275"
    INDEX 01 00:13:28
  TRACK 11 AUDIO
    TITLE "0:"
    INDEX 01 00:15:17
  TRACK 12 AUDIO
    TITLE "9:cjc034_01276"
    INDEX 01 00:15:27
  TRACK 13 AUDIO
    TITLE "0:"
    INDEX 01 00:16:71
  TRACK 14 AUDIO
    TITLE "10:cjc034_01277"
    INDEX 01 00:17:53
  TRACK 15 AUDIO
    TITLE "0:"
    INDEX 01 00:18:54
  TRACK 16 AUDIO
    TITLE "9:cjc034_01278"
    INDEX 01 00:18:62
  TRACK 17 AUDIO
    TITLE "0:"
    INDEX 01 00:20:08
  TRACK 18 AUDIO
    TITLE "10:cjc034_01279"
    INDEX 01 00:20:61
  TRACK 19 AUDIO
    TITLE "0:"
    INDEX 01 00:21:47
  TRACK 20 AUDIO
    TITLE "9:cjc034_01280"
    INDEX 01 00:21:57
  TRACK 21 AUDIO
    TITLE "0:"
    INDEX 01 00:22:44
  TRACK 22 AUDIO
    TITLE "10:cjc034_01281"
    INDEX 01 00:23:40
  TRACK 23 AUDIO
    TITLE "0:"
    INDEX 01 00:24:45
  TRACK 24 AUDIO
    TITLE "9:cjc034_01282"
    INDEX 01 00:24:49
  TRACK 25 AUDIO
    TITLE "0:"
    INDEX 01 00:25:58
  TRACK 26 AUDIO
    TITLE "10:cjc034_01283"
    INDEX 01 00:26:38
  TRACK 27 AUDIO
    TITLE "0:"
    INDEX 01 00:27:63
  TRACK 28 AUDIO
    TITLE "9:cjc034_01284"
    INDEX 01 00:27:65
  TRACK 29 AUDIO
    TITLE "0:"
    INDEX 01 00:29:13
  TRACK 30 AUDIO
    TITLE "10:cjc034_01285"
    INDEX 01 00:29:70
  TRACK 31 AUDIO
    TITLE "0:"
    INDEX 01 00:30:73
  TRACK 32 AUDIO
    TITLE "9:cjc034_01286"
    INDEX 01 00:31:06
  TRACK 33 AUDIO
    TITLE "0:"
    INDEX 01 00:32:17
  TRACK 34 AUDIO
    TITLE "10:cjc034_01287"
    INDEX 01 00:32:74
  TRACK 35 AUDIO
    TITLE "0:"
    INDEX 01 00:34:04
  TRACK 36 AUDIO
    TITLE "9:cjc034_01288"
    INDEX 01 00:34:08
  TRACK 37 AUDIO
    TITLE "0:"
    INDEX 01 00:35:39
  TRACK 38 AUDIO
    TITLE "11:cjc034_01289"
    INDEX 01 00:37:12
  TRACK 39 AUDIO
    TITLE "0:"
    INDEX 01 00:42:04
  TRACK 40 AUDIO
    TITLE "10:cjc034_01290"
    INDEX 01 00:43:11
  TRACK 41 AUDIO
    TITLE "0:"
    INDEX 01 00:43:74
  TRACK 42 AUDIO
    TITLE "9:cjc034_01291"
    INDEX 01 00:44:07
  TRACK 43 AUDIO
    TITLE "0:"
    INDEX 01 00:45:39
  TRACK 44 AUDIO
    TITLE "10:cjc034_01292"
    INDEX 01 00:46:17
  TRACK 45 AUDIO
    TITLE "0:"
    INDEX 01 00:47:30
  TRACK 46 AUDIO
    TITLE "9:cjc034_01293"
    INDEX 01 00:47:34
  TRACK 47 AUDIO
    TITLE "0:"
    INDEX 01 00:48:38
  TRACK 48 AUDIO
    TITLE "10:cjc034_01294"
    INDEX 01 00:49:21
  TRACK 49 AUDIO
    TITLE "0:"
    INDEX 01 00:50:27
  TRACK 50 AUDIO
    TITLE "9:cjc034_01295"
    INDEX 01 00:50:29
  TRACK 51 AUDIO
    TITLE "0:"
    INDEX 01 00:51:46
  TRACK 52 AUDIO
    TITLE "10:cjc034_01296"
    INDEX 01 00:52:32
  TRACK 53 AUDIO
    TITLE "0:"
    INDEX 01 00:53:51
  TRACK 54 AUDIO
    TITLE "9:cjc034_01297"
    INDEX 01 00:53:60
  TRACK 55 AUDIO
    TITLE "0:"
    INDEX 01 00:54:66
  TRACK 56 AUDIO
    TITLE "10:cjc034_01298"
    INDEX 01 00:55:50
  TRACK 57 AUDIO
    TITLE "0:"
    INDEX 01 00:56:69
  TRACK 58 AUDIO
    TITLE "9:cjc034_01299"
    INDEX 01 00:57:03
  TRACK 59 AUDIO
    TITLE "0:"
    INDEX 01 00:58:13
  TRACK 60 AUDIO
    TITLE "10:cjc034_01300"
    INDEX 01 00:58:73
  TRACK 61 AUDIO
    TITLE "0:"
    INDEX 01 01:00:08
  TRACK 62 AUDIO
    TITLE "9:cjc034_01301"
    INDEX 01 01:00:13
  TRACK 63 AUDIO
    TITLE "0:"
    INDEX 01 01:01:34
  TRACK 64 AUDIO
    TITLE "10:cjc034_01302"
    INDEX 01 01:02:22
  TRACK 65 AUDIO
    TITLE "0:"
    INDEX 01 01:03:33
  TRACK 66 AUDIO
    TITLE "9:cjc034_01303"
    INDEX 01 01:03:37
  TRACK 67 AUDIO
    TITLE "0:"
    INDEX 01 01:04:48
  TRACK 68 AUDIO
    TITLE "10:cjc034_01304"
    INDEX 01 01:05:32
  TRACK 69 AUDIO
    TITLE "0:"
    INDEX 01 01:06:40
  TRACK 70 AUDIO
    TITLE "9:cjc034_01305"
    INDEX 01 01:06:49
  TRACK 71 AUDIO
    TITLE "0:"
    INDEX 01 01:07:66
  TRACK 72 AUDIO
    TITLE "10:cjc034_01306"
    INDEX 01 01:08:48
  TRACK 73 AUDIO
    TITLE "0:"
    INDEX 01 01:09:57
  TRACK 74 AUDIO
    TITLE "9:cjc034_01307"
    INDEX 01 01:09:61
  TRACK 75 AUDIO
    TITLE "0:"
    INDEX 01 01:10:73
  TRACK 76 AUDIO
    TITLE "10:cjc034_01308"
    INDEX 01 01:11:58
  TRACK 77 AUDIO
    TITLE "0:"
    INDEX 01 01:13:71
  TRACK 78 AUDIO
    TITLE "9:cjc034_01309"
    INDEX 01 01:14:00
  TRACK 79 AUDIO
    TITLE "0:"
    INDEX 01 01:15:23
